<svg xmlns="http://www.w3.org/2000/svg" viewBox="0 0 204.32 33.89"><defs><style>.cls-1{fill:#231f20;}.cls-2{fill:#0065ff;}</style></defs><title>Asset 1</title><g id="Layer_2" data-name="Layer 2"><g id="Layer_3" data-name="Layer 3"><path class="cls-1" d="M123.71,14.67v-11H92.3V21.09h25.11V33.83l6.3,0V21h24.17V14.67Zm-25.11.12V10h18.81v4.82Z"/><polygon class="cls-1" points="147.9 33.83 141.59 33.83 141.59 30.6 127.78 30.6 127.78 24.3 147.9 24.3 147.9 33.83"/><polygon class="cls-1" points="84.88 0.89 84.88 0.1 78.58 0.1 78.58 3.69 64.76 3.69 64.76 9.99 64.77 9.99 64.77 10.1 84.89 10.1 84.89 0.89 84.88 0.89"/><polygon class="cls-1" points="31.63 14.69 31.63 3.67 0.21 3.67 0.21 21.09 20.37 21.09 20.37 14.79 6.51 14.79 6.51 9.97 25.33 9.97 25.36 21 84.88 21 84.88 14.69 31.63 14.69"/><path d="M0,28.59H1.49a1.72,1.72,0,1,1,0,3.43H.26V33.7H0Zm.26.25v2.94H1.48a1.48,1.48,0,1,0,0-2.94Z"/><path d="M5.29,32.17v-2h.25v2a1.27,1.27,0,0,0,1.35,1.36,1.35,1.35,0,0,0,1.38-1.36v-2h.25v3.5H8.28v-.82a1.5,1.5,0,0,1-1.41.89A1.48,1.48,0,0,1,5.29,32.17Z"/><path d="M10.3,33.13l.2-.16a1.4,1.4,0,0,0,1.15.57c.68,0,1-.36,1-.8s-.52-.61-1.05-.75-1.15-.32-1.15-.93.46-.93,1.17-.93a1.53,1.53,0,0,1,1.18.49l-.19.15a1.25,1.25,0,0,0-1-.41c-.56,0-.91.29-.91.69s.49.59,1,.73,1.17.32,1.17,1-.41,1-1.28,1A1.65,1.65,0,0,1,10.3,33.13Z"/><path d="M14.85,28.59h.25V31a1.57,1.57,0,0,1,3,.73v2h-.25v-2a1.27,1.27,0,0,0-1.35-1.37,1.36,1.36,0,0,0-1.38,1.37v2h-.25Z"/><path d="M25.83,28.59h.28l3.57,4.71V28.59h.26V33.7h-.28L26.09,29v4.7h-.26Z"/><path d="M31.88,32a1.82,1.82,0,1,1,1.82,1.82A1.81,1.81,0,0,1,31.88,32Zm3.37,0a1.56,1.56,0,1,0-1.55,1.59A1.56,1.56,0,0,0,35.25,32Z"/><path d="M37,30.2h.61v-.8l.25-.18v1h1v.23h-1v2.06c0,.84.19,1,1,1v.23h0c-.93,0-1.18-.23-1.18-1.21V30.43H37Z"/><path d="M40.66,28.59h.26v1h-.26Zm0,1.61h.26v3.5h-.26Z"/><path d="M42.71,30.2h.59v-.4c0-1,.26-1.21,1.19-1.21h0v.25c-.79,0-1,.13-1,1v.39h1v.23h-1V33.7H43.3V30.43h-.59Z"/><path d="M46.36,28.59h.26v1h-.26Zm0,1.61h.26v3.5h-.26Z"/><path d="M48.52,32a1.83,1.83,0,0,1,3.5-.73l-.25.1a1.52,1.52,0,0,0-1.42-.95,1.59,1.59,0,0,0,0,3.17,1.54,1.54,0,0,0,1.43-1l.24.1a1.79,1.79,0,0,1-1.68,1.1A1.81,1.81,0,0,1,48.52,32Z"/><path d="M53.75,32a1.81,1.81,0,0,1,1.82-1.82,1.66,1.66,0,0,1,1.54,1V30.2h.26v3.5h-.26v-.93a1.64,1.64,0,0,1-1.54,1A1.81,1.81,0,0,1,53.75,32Zm3.39,0a1.56,1.56,0,1,0-1.57,1.59A1.56,1.56,0,0,0,57.14,32Z"/><path d="M59.12,30.2h.61v-.8l.25-.18v1h1v.23H60v2.06c0,.84.19,1,1,1v.23h0c-.93,0-1.18-.23-1.18-1.21V30.43h-.61Z"/><path d="M62.81,28.59h.26v1h-.26Zm0,1.61h.26v3.5h-.26Z"/><path d="M65,32a1.82,1.82,0,1,1,1.82,1.82A1.81,1.81,0,0,1,65,32Zm3.37,0a1.56,1.56,0,1,0-1.55,1.59A1.56,1.56,0,0,0,68.35,32Z"/><path d="M70.52,30.2h.25V31a1.58,1.58,0,0,1,3,.73v2H73.5v-2a1.26,1.26,0,0,0-1.35-1.36,1.34,1.34,0,0,0-1.37,1.36v2h-.26Z"/><path d="M81.2,33l.22-.17a1.78,1.78,0,0,0,1.39.67,1.24,1.24,0,0,0,1.36-1.2c0-.77-.67-1-1.35-1.21s-1.44-.47-1.44-1.35a1.33,1.33,0,0,1,1.47-1.26,1.75,1.75,0,0,1,1.43.64l-.21.15a1.45,1.45,0,0,0-1.23-.55,1.09,1.09,0,0,0-1.2,1c0,.73.66.93,1.34,1.14s1.45.52,1.45,1.42a1.49,1.49,0,0,1-1.62,1.43A2.07,2.07,0,0,1,81.2,33Z"/><path d="M86.29,32a1.8,1.8,0,0,1,1.82-1.83,1.74,1.74,0,0,1,1.78,1.79V32H86.54a1.51,1.51,0,0,0,1.59,1.5,1.48,1.48,0,0,0,1.46-1l.23.11a1.69,1.69,0,0,1-1.69,1.15A1.73,1.73,0,0,1,86.29,32Zm.26-.15h3.08a1.47,1.47,0,0,0-1.52-1.45A1.56,1.56,0,0,0,86.55,31.81Z"/><path d="M91.81,30.2h.25v.91a1.35,1.35,0,0,1,1.32-.91h.22v.25h-.22a1.28,1.28,0,0,0-1.31,1.42V33.7h-.26Z"/><path d="M95.27,30.2h.28l1.22,3.15L98,30.2h.28L96.9,33.7h-.26Z"/><path d="M100.1,28.59h.26v1h-.26Zm0,1.61h.26v3.5h-.26Z"/><path d="M102.26,32a1.83,1.83,0,0,1,3.5-.73l-.25.1a1.52,1.52,0,0,0-1.42-.95,1.59,1.59,0,0,0,0,3.17,1.54,1.54,0,0,0,1.43-1l.24.1a1.79,1.79,0,0,1-1.68,1.1A1.81,1.81,0,0,1,102.26,32Z"/><path d="M107.49,32a1.8,1.8,0,0,1,1.82-1.83,1.74,1.74,0,0,1,1.79,1.79V32h-3.35a1.5,1.5,0,0,0,1.59,1.5,1.48,1.48,0,0,0,1.46-1l.22.11a1.68,1.68,0,0,1-1.68,1.15A1.74,1.74,0,0,1,107.49,32Zm.26-.15h3.09a1.48,1.48,0,0,0-1.53-1.45A1.56,1.56,0,0,0,107.75,31.81Z"/><polygon class="cls-2" points="204.32 0 184.15 0 184.15 0.19 184.14 0.19 184.14 6.49 198.01 6.49 198.01 10.03 204.32 10.03 204.32 9.61 204.32 9.61 204.32 0"/><polygon class="cls-2" points="198.02 15.91 198.02 24.3 165.21 24.3 165.21 6.3 177.84 6.3 177.84 0 158.91 0 158.91 21.52 158.88 33.89 163.59 30.61 204.32 30.61 204.32 15.91 198.02 15.91"/></g></g></svg>